HIERARCHY
ROOT Hips
{
	OFFSET -0.001795 -0.223333 0.028219
	CHANNELS 6 Xposition Yposition Zposition Zrotation Yrotation Xrotation 
	JOINT LeftUpLeg
	{
		OFFSET 0.069520 -0.091406 -0.006815
		CHANNELS 3 Zrotation Yrotation Xrotation
		JOINT LeftLeg
		{
			OFFSET 0.034277 -0.375199 -0.004496
			CHANNELS 3 Zrotation Yrotation Xrotation
			JOINT LeftFoot
			{
				OFFSET -0.013596 -0.397961 -0.043693
				CHANNELS 3 Zrotation Yrotation Xrotation
				JOINT LeftToe
				{
					OFFSET 0.026358 -0.055791 0.119288
					CHANNELS 3 Zrotation Yrotation Xrotation
					End Site
					{
						OFFSET 0.000000 0.000000 0.000000
					}
				}
			}
		}
	}
	JOINT RightUpLeg
	{
		OFFSET -0.067670 -0.090522 -0.004320
		CHANNELS 3 Zrotation Yrotation Xrotation
		JOINT RightLeg
		{
			OFFSET -0.038290 -0.382569 -0.008850
			CHANNELS 3 Zrotation Yrotation Xrotation
			JOINT RightFoot
			{
				OFFSET 0.015774 -0.398415 -0.042312
				CHANNELS 3 Zrotation Yrotation Xrotation
				JOINT RightToe
				{
					OFFSET -0.025372 -0.048144 0.123348
					CHANNELS 3 Zrotation Yrotation Xrotation
					End Site
					{
						OFFSET 0.000000 0.000000 0.000000
					}
				}
			}
		}
	}
	JOINT Spine
	{
		OFFSET -0.002533 0.108963 -0.026696
		CHANNELS 3 Zrotation Yrotation Xrotation
		JOINT Spine1
		{
			OFFSET 0.005487 0.135180 0.001092
			CHANNELS 3 Zrotation Yrotation Xrotation
			JOINT Spine2
			{
				OFFSET 0.001457 0.052922 0.025425
				CHANNELS 3 Zrotation Yrotation Xrotation
				JOINT Neck
				{
					OFFSET -0.002778 0.213870 -0.042857
					CHANNELS 3 Zrotation Yrotation Xrotation
					JOINT Head
					{
						OFFSET 0.005152 0.064970 0.051349
						CHANNELS 3 Zrotation Yrotation Xrotation
						End Site
						{
							OFFSET 0.000000 0.000000 0.000000
						}
					}
				}
				JOINT LeftShoulder
				{
					OFFSET 0.078845 0.121749 -0.034090
					CHANNELS 3 Zrotation Yrotation Xrotation
					JOINT LeftArm
					{
						OFFSET 0.090977 0.030469 -0.008868
						CHANNELS 3 Zrotation Yrotation Xrotation
						JOINT LeftForeArm
						{
							OFFSET 0.259612 -0.012772 -0.027456
							CHANNELS 3 Zrotation Yrotation Xrotation
							JOINT LeftHand
							{
								OFFSET 0.249234 0.008986 -0.001171
								CHANNELS 3 Zrotation Yrotation Xrotation
								End Site
								{
									OFFSET 0.000000 0.000000 0.000000
								}
							}
						}
					}
				}
				JOINT RightShoulder
				{
					OFFSET -0.081759 0.118833 -0.038615
					CHANNELS 3 Zrotation Yrotation Xrotation
					JOINT RightArm
					{
						OFFSET -0.096012 0.032551 -0.009143
						CHANNELS 3 Zrotation Yrotation Xrotation
						JOINT RightForeArm
						{
							OFFSET -0.253742 -0.013329 -0.021401
							CHANNELS 3 Zrotation Yrotation Xrotation
							JOINT RightHand
							{
								OFFSET -0.255298 0.007772 -0.005559
								CHANNELS 3 Zrotation Yrotation Xrotation
								End Site
								{
									OFFSET 0.000000 0.000000 0.000000
								}
							}
						}
					}
				}
			}
		}
	}
}
MOTION
Frames: 7
Frame Time: 0.050000
0.000000 0.965127 0.000000 -0.889775 -0.543829 2.260753 1.303396 0.054243 0.938916 -1.292411 0.226279 -3.714351 4.307244 12.559872 18.563123 0.000000 0.000000 0.000000 -1.157144 0.375081 -3.797402 1.162448 -0.082078 1.316475 -0.008564 -7.210051 19.160698 0.000000 0.000000 0.000000 7.459743 -1.060051 8.911214 -6.058348 2.142888 -20.805692 -2.049689 4.359891 24.409562 11.476228 -5.638921 -20.182234 0.000000 0.000000 0.000000 -22.173811 -16.717083 7.059261 -46.538983 -8.758117 -3.890496 -8.786593 -23.576501 2.711869 0.000000 0.000000 0.000000 31.654689 2.718397 1.456588 47.939594 14.017709 -1.898967 4.265934 25.672609 2.176486 0.000000 0.000000 0.000000 
-0.000287 0.964143 0.000248 -1.130174 -0.341770 2.959797 1.773770 0.007110 0.513630 -1.553729 0.254388 -4.150809 4.105412 12.207048 17.947824 0.000000 0.000000 0.000000 -0.830340 0.452788 -4.602886 1.040099 -0.052889 1.817076 -0.025011 -6.928864 18.155518 0.000000 0.000000 0.000000 7.946131 -0.989395 7.682310 -6.304569 2.224023 -20.304140 -2.433002 3.914173 24.593041 11.721603 -5.955987 -19.731404 0.000000 0.000000 0.000000 -21.357244 -17.091731 7.343316 -47.088478 -9.462004 -3.727467 -7.837041 -23.617289 2.530838 0.000000 0.000000 0.000000 31.301011 3.250287 1.677025 49.538950 13.704906 -1.945863 3.626013 27.263131 2.207822 0.000000 0.000000 0.000000 
-0.000542 0.964209 0.000369 -0.933592 0.209575 3.059191 2.205966 -0.062019 -0.278377 -2.489740 0.301395 -2.647500 3.560609 11.303613 16.762961 0.000000 0.000000 0.000000 -0.764344 0.474896 -4.835256 1.078453 -0.036410 2.582805 -0.965236 -8.122205 17.004297 0.000000 0.000000 0.000000 7.711501 -0.976815 7.691195 -5.785377 2.088385 -20.496556 -2.673113 3.595067 25.130740 10.805225 -5.521580 -18.961472 0.000000 0.000000 0.000000 -22.031862 -17.267872 7.511050 -46.544519 -10.273919 -3.443435 -7.645287 -23.671684 2.503352 0.000000 0.000000 0.000000 31.192298 3.088684 1.629335 48.917140 13.632070 -2.067859 3.961576 28.229930 2.399429 0.000000 0.000000 0.000000 
-0.000762 0.965199 0.001001 -0.931198 0.448838 3.330597 2.071529 -0.066028 -0.337452 -2.435620 0.294031 -2.524321 3.588158 11.195717 15.760092 0.000000 0.000000 0.000000 -0.848613 0.500572 -5.121768 1.447437 -0.086278 2.524900 -1.340465 -8.858083 17.611399 0.000000 0.000000 0.000000 7.986599 -0.967284 7.323906 -6.197958 2.188234 -20.965869 -2.694479 3.532536 25.846295 10.683351 -5.258072 -19.916753 0.000000 0.000000 0.000000 -21.734134 -17.987401 7.903692 -46.534786 -10.378656 -3.454844 -8.357371 -25.044421 2.813736 0.000000 0.000000 0.000000 31.326678 2.744789 1.437520 48.415784 13.366322 -2.248611 4.597505 29.090583 2.653317 0.000000 0.000000 0.000000 
-0.001107 0.965849 0.002126 -0.780222 0.907106 3.289701 2.270104 -0.076246 -0.411772 -3.078338 0.340472 -1.761074 3.348624 10.678465 14.622539 0.000000 0.000000 0.000000 -0.990318 0.499285 -5.140549 1.597867 -0.095384 3.041341 -1.651704 -9.232182 17.288620 0.000000 0.000000 0.000000 7.564882 -0.939356 7.375145 -5.522021 2.022936 -20.863894 -3.145963 2.982601 25.571134 10.253437 -5.011074 -19.762796 0.000000 0.000000 0.000000 -22.584531 -17.644685 7.832053 -46.176146 -10.499896 -3.365859 -8.428702 -26.487378 3.016510 0.000000 0.000000 0.000000 31.274653 2.725559 1.300558 48.065041 12.614481 -2.465750 5.514935 29.893925 2.948323 0.000000 0.000000 0.000000 
-0.001797 0.966639 0.004236 -0.698430 1.257971 3.229641 2.238102 -0.073745 -0.370547 -3.067193 0.335488 -1.496653 3.187254 10.476390 14.614247 0.000000 0.000000 0.000000 -1.190587 0.466124 -4.814957 1.844671 -0.129850 3.080609 -1.597495 -9.033251 17.076727 0.000000 0.000000 0.000000 7.481438 -0.955847 7.583039 -5.699292 2.068398 -21.213648 -3.002546 2.676305 25.633107 10.090663 -4.762435 -20.598186 0.000000 0.000000 0.000000 -23.152382 -17.722459 7.950514 -45.834799 -10.440690 -3.372123 -9.049316 -27.829356 3.340580 0.000000 0.000000 0.000000 31.034793 2.557709 1.150335 48.244018 12.022754 -2.683402 5.799712 30.184862 3.055425 0.000000 0.000000 0.000000 
-0.003082 0.966910 0.007226 -0.637383 1.654406 3.231722 2.175647 -0.052058 -0.061844 -3.063428 0.335539 -1.943832 3.357391 10.851790 14.982300 0.000000 0.000000 0.000000 -1.125449 0.425772 -4.360745 2.066834 -0.164874 2.975235 -2.050594 -9.608582 16.431853 0.000000 0.000000 0.000000 7.484080 -0.945187 7.456161 -5.803819 2.108114 -21.049896 -3.228630 2.361664 25.507004 10.184891 -4.816027 -20.670615 0.000000 0.000000 0.000000 -23.263949 -17.243217 7.683342 -45.742934 -10.312201 -3.405812 -8.996183 -28.724007 3.446710 0.000000 0.000000 0.000000 30.956215 2.012022 0.744508 48.689779 11.408588 -2.904519 6.100899 30.475443 3.181802 0.000000 0.000000 0.000000 
